<?xml version="1.0" encoding="UTF-8" standalone="no"?>
<svg
   xmlns:dc="http://purl.org/dc/elements/1.1/"
   xmlns:cc="http://creativecommons.org/ns#"
   xmlns:rdf="http://www.w3.org/1999/02/22-rdf-syntax-ns#"
   xmlns:svg="http://www.w3.org/2000/svg"
   xmlns="http://www.w3.org/2000/svg"
   xmlns:xlink="http://www.w3.org/1999/xlink"
   id="svg20"
   version="1.1"
   viewBox="0 0 25.66455 25.664612"
   height="97.000107"
   width="96.99987">
  <defs
     id="defs14">
    <linearGradient
       gradientUnits="userSpaceOnUse"
       y2="6034.1479"
       x2="15758.295"
       y1="5983.7666"
       x1="166.39192"
       id="linearGradient840"
       xlink:href="#linearGradient834" />
    <linearGradient
       id="linearGradient834">
      <stop
         id="stop830"
         offset="0"
         style="stop-color:#08828b;stop-opacity:1;" />
      <stop
         id="stop832"
         offset="1"
         style="stop-color:#08828b;stop-opacity:0;" />
    </linearGradient>
  </defs>
  <metadata
     id="metadata17">
    <rdf:RDF>
      <cc:Work
         rdf:about="">
        <dc:format>image/svg+xml</dc:format>
        <dc:type
           rdf:resource="http://purl.org/dc/dcmitype/StillImage" />
        <dc:title></dc:title>
      </cc:Work>
    </rdf:RDF>
  </metadata>
  <g
     transform="translate(-47.867056,-125.27822)"
     id="layer1">
    <g
       id="g6"
       transform="matrix(0.00201493,0,0,-0.00222002,47.85207,151.3946)"
       style="fill:#000000;stroke:none">
      <path
         style="fill:url(#linearGradient840);fill-opacity:1;stroke:#08828b;stroke-width:0.75;stroke-miterlimit:4;stroke-dasharray:none;stroke-opacity:0"
         id="path4"
         d="M 2980,11763 C 2132,11737 1324,11306 803,10600 64,9598 -36,8182 526,6673 1268,4681 3089,2601 5850,589 c 234,-171 529,-379 545,-385 18,-7 441,293 890,630 1976,1483 3442,3004 4339,4499 570,950 892,1837 993,2742 21,188 24,685 5,855 -52,462 -163,855 -343,1214 -166,330 -337,565 -602,823 -215,209 -424,359 -687,492 -449,228 -892,322 -1410,299 -991,-43 -1937,-632 -2597,-1618 -171,-255 -391,-672 -513,-972 -35,-87 -67,-155 -71,-150 -4,4 -35,77 -70,162 -82,201 -255,547 -362,727 -626,1046 -1484,1677 -2483,1828 -114,17 -375,32 -504,28 z" />
      <path
         style="fill:#000000;fill-opacity:0;stroke-width:14.03150368"
         id="path6"
         d="M 5503.3574,2452.6529 4096.9842,7556.374 3300.6218,5980.9016 H 7.4374851 v 108.187 H 3226.3723 l 904.0971,1786.4364 1348.1383,-4895.4604 566.3346,3209.0961 h 799.2735 l 442.5853,-1038.5949 647.863,2509.9377 867.7009,-3338.9212 515.3793,1910.8532 h 3421.3017 v -108.187 H 9408.0081 l -608.5552,-2255.699 -864.7888,3329.4539 -620.2009,-2405.806 -548.863,1288.7763 h -623.1145 z" />
      <path
         id="path6-3"
         d="m 5503.9238,3179.5234 c -8.8885,25.5747 -18.653,50.8807 -24.6258,77.3496 C 5022.2546,4985.9433 4565.2113,6715.0137 4108.168,8444.084 3853.1003,7918.0384 3598.0324,7391.9929 3342.9648,6865.9473 H 17.724609 v 172.2089 c 1071.263691,0 2142.527391,10e-5 3213.790991,0 308.8771,636.2474 617.7531,1272.4953 926.6309,1908.7422 442.1703,-1673.8651 884.3454,-3347.729 1326.5176,-5021.5937 181.511,1072.2155 363.0224,2144.4309 544.5332,3216.6465 h 840.705 c 137.7251,-336.9166 275.4464,-673.8348 413.17,-1010.752 208.2348,840.6617 416.1307,1681.4092 624.6025,2522.011 8.9375,33.4605 17.8746,66.921 26.8115,100.3816 25.4319,-90.9231 48.0115,-182.6892 70.5855,-274.2899 262.9015,-1053.9436 525.5509,-2108.1455 788.3553,-3162.1885 1.689,-6.7754 3.378,-13.5509 5.067,-20.3263 162.998,630.0157 325.9969,1260.0311 488.9942,1890.0469 H 12744.629 V 7014.625 H 10428.941 9423.7422 c -201.6561,-778.8305 -402.9279,-1557.7614 -604.8359,-2336.5261 -8.1439,-30.4712 -16.2878,-60.9423 -24.4317,-91.4134 -50.4224,195.8537 -98.2619,392.3578 -147.4752,588.5166 -237.4087,952.8603 -474.8173,1905.7207 -712.226,2858.5811 -203.3753,-822.4265 -406.753,-1644.8524 -610.1269,-2467.2793 -191.0867,467.7454 -382.1732,935.4909 -573.2598,1403.2363 H 6176.9531 C 5966.3042,5723.2819 5755.7792,4476.7977 5545.0527,3230.3555 c -8.1987,-32.6854 -16.3966,-65.3709 -24.5937,-98.0567 -5.5117,15.7416 -11.0235,31.4831 -16.5352,47.2246 z"
         style="fill:#ff0000;fill-opacity:1;stroke-width:2.25;stroke-miterlimit:4;stroke-dasharray:none" />
    </g>
  </g>
</svg>
