<?xml version="1.0" encoding="UTF-8" standalone="no"?>
<!-- Created with Inkscape (http://www.inkscape.org/) -->

<svg
   xmlns:dc="http://purl.org/dc/elements/1.1/"
   xmlns:cc="http://creativecommons.org/ns#"
   xmlns:rdf="http://www.w3.org/1999/02/22-rdf-syntax-ns#"
   xmlns:svg="http://www.w3.org/2000/svg"
   xmlns="http://www.w3.org/2000/svg"
   xmlns:sodipodi="http://sodipodi.sourceforge.net/DTD/sodipodi-0.dtd"
   xmlns:inkscape="http://www.inkscape.org/namespaces/inkscape"
   width="97"
   height="97"
   viewBox="0 0 25.664583 25.664584"
   version="1.1"
   id="svg99"
   inkscape:version="0.92.5 (2060ec1f9f, 2020-04-08)"
   sodipodi:docname="odontology.svg">
  <defs
     id="defs93">
    <inkscape:path-effect
       effect="spiro"
       id="path-effect953"
       is_visible="true" />
    <inkscape:path-effect
       effect="spiro"
       id="path-effect949"
       is_visible="true" />
    <inkscape:path-effect
       effect="spiro"
       id="path-effect136"
       is_visible="true" />
    <inkscape:path-effect
       effect="spiro"
       id="path-effect122"
       is_visible="true" />
    <inkscape:path-effect
       effect="spiro"
       id="path-effect113"
       is_visible="true" />
    <inkscape:path-effect
       effect="spiro"
       id="path-effect109"
       is_visible="true" />
  </defs>
  <sodipodi:namedview
     id="base"
     pagecolor="#ffffff"
     bordercolor="#666666"
     borderopacity="1.0"
     inkscape:pageopacity="0.0"
     inkscape:pageshadow="2"
     inkscape:zoom="3.0023438"
     inkscape:cx="22.140922"
     inkscape:cy="53.901447"
     inkscape:document-units="mm"
     inkscape:current-layer="g5103"
     showgrid="false"
     inkscape:window-width="1280"
     inkscape:window-height="959"
     inkscape:window-x="0"
     inkscape:window-y="0"
     inkscape:window-maximized="1"
     units="px" />
  <metadata
     id="metadata96">
    <rdf:RDF>
      <cc:Work
         rdf:about="">
        <dc:format>image/svg+xml</dc:format>
        <dc:type
           rdf:resource="http://purl.org/dc/dcmitype/StillImage" />
        <dc:title />
      </cc:Work>
    </rdf:RDF>
  </metadata>
  <g
     inkscape:label="Capa 1"
     inkscape:groupmode="layer"
     id="layer1"
     transform="translate(0,-271.3354)">
    <g
       id="g5103"
       transform="matrix(0.11246594,0,0,0.11411766,0.93117143,266.48988)"
       inkscape:transform-center-x="-2.377132"
       inkscape:transform-center-y="-2.5323828">
      <ellipse
         ry="112.44791"
         rx="112.44792"
         cy="156.01535"
         cx="106.51378"
         id="path955"
         style="fill:#08828b;fill-opacity:0.19607843;stroke-width:3.92801441;stroke-miterlimit:4;stroke-dasharray:none;stroke:#56837c;stroke-opacity:1" />
      <g
         transform="matrix(1.0389345,0,0,1.0747143,-5.9374643,10.556834)"
         id="g1051">
        <path
           style="fill:#ffffff;fill-opacity:1;stroke:#08828b;stroke-width:6.47779703;stroke-linecap:butt;stroke-linejoin:miter;stroke-miterlimit:4;stroke-dasharray:none;stroke-opacity:1"
           d="M 108.8308,83.706978 C 101.7321,73.10948 90.240141,65.555541 77.696447,63.241628 67.70328,61.398206 57.089676,62.854449 48.07772,67.54979 39.065764,72.245131 31.742764,80.189381 28.029805,89.648531 c -3.624364,9.233444 -3.729735,19.856269 0,29.047659 3.018134,7.43775 8.313515,13.6802 12.601985,20.46535 3.015696,4.77139 5.553475,9.85452 7.412929,15.18397 4.700754,13.47299 4.940748,28.0159 5.930348,42.25105 0.344816,4.96009 0.819162,10.0387 2.965172,14.52379 1.444198,3.01833 3.694621,5.73436 6.671637,7.26191 2.498616,1.28207 5.528535,1.65643 8.154227,0.66017 2.145581,-0.81409 3.890417,-2.47247 5.176645,-4.37297 1.286229,-1.90049 2.156675,-4.04682 2.977579,-6.1898 2.140721,-5.58839 4.014815,-11.29644 5.189052,-17.16448 0.628359,-3.14011 1.059057,-6.33555 2.079629,-9.37094 1.020572,-3.03539 2.707123,-5.96098 5.333303,-7.79355 1.47949,-1.0324 3.209985,-1.68134 4.988568,-1.98365 1.778584,-0.3023 3.605411,-0.26447 5.389551,0.003 4.44576,0.6668 8.656,2.7889 11.86072,5.94155 3.34919,3.29478 5.53805,7.57527 7.41293,11.88311 1.96987,4.52608 3.6577,9.17099 5.18905,13.86362 1.1843,3.62915 2.30944,7.35814 4.51631,10.47311 1.10343,1.55748 2.47633,2.94312 4.11364,3.92421 1.63731,0.98109 3.54834,1.54375 5.45463,1.44683 1.4323,-0.0728 2.83517,-0.51429 4.09276,-1.20367 1.25759,-0.68938 2.37298,-1.62247 3.3371,-2.68419 1.92824,-2.12345 3.23851,-4.72634 4.43082,-7.33508 2.3461,-5.13317 4.33072,-10.43167 5.93035,-15.84414 2.68028,-9.06894 4.27073,-18.41729 5.93034,-27.72725 1.28822,-7.22658 2.65739,-14.55508 5.93035,-21.12552 2.45016,-4.91869 5.89388,-9.26069 8.89552,-13.86362 6.50843,-9.98051 11.03719,-21.83632 9.63681,-33.668873 -0.73768,-6.233092 -3.12005,-12.249024 -6.74899,-17.370198 -3.62893,-5.121173 -8.48933,-9.346144 -14.00721,-12.337567 -6.85223,-3.714816 -14.7255,-5.520921 -22.51208,-5.171671 -7.78659,0.349249 -15.46467,2.851984 -21.96552,7.152188 -6.51819,4.311668 -11.83562,10.418772 -15.2095,17.468182 -3.37387,7.049411 -4.79475,15.021419 -4.06414,22.802389"
           id="path134"
           inkscape:connector-curvature="0"
           inkscape:path-effect="#path-effect136"
           inkscape:original-d="M 108.8308,83.706978 C 105.37116,90.749049 88.321908,71.163467 77.696447,63.241628 67.070986,55.319789 44.585612,80.846 28.029805,89.648531 c -16.55581,8.802532 2.6e-4,19.364879 0,29.047659 -2.6e-4,9.68276 8.401582,13.64334 12.601985,20.46535 4.2004,6.82201 4.942211,10.12242 7.412929,15.18397 2.470719,5.06156 3.953825,28.16713 5.930348,42.25105 1.97652,14.08391 1.977038,9.68229 2.965172,14.52379 0.98813,4.8415 4.448019,4.84104 6.671637,7.26191 2.223621,2.42085 5.436411,0.43988 8.154227,0.66017 2.717815,0.22029 5.436409,-7.04208 8.154224,-10.56277 2.717815,-3.52069 3.459627,-11.44322 5.189052,-17.16448 1.729423,-5.72126 4.942215,-11.44323 7.412932,-17.16449 2.470718,-5.72127 6.918994,-1.32058 10.378119,-1.98052 3.45913,-0.65994 7.90742,3.96081 11.86072,5.94155 3.9533,1.98075 6.1777,8.36196 7.41293,11.88311 1.23523,3.52115 2.22414,8.80207 5.18905,13.86362 2.96492,5.06156 11.11966,12.54305 14.08458,15.84415 2.96491,3.30109 7.41318,-9.68276 11.86068,-11.22294 4.4475,-1.54016 2.71833,-10.34293 5.93035,-15.84414 3.21201,-5.5012 3.95382,-18.48506 5.93034,-27.72725 1.97653,-9.24219 3.70673,-12.10339 5.93035,-21.12552 2.22363,-9.02213 6.1777,-6.82201 8.89552,-13.86362 2.71781,-7.04161 6.4248,-26.84731 9.63681,-33.668873 3.21201,-6.821552 -12.84882,-16.944661 -20.7562,-29.707765 -7.90739,-12.763107 -29.15728,-0.660404 -44.4776,1.980517 -15.32032,2.640921 -17.29658,26.186614 -19.27364,40.270571"
           sodipodi:nodetypes="csssscsscssssssccscsssssssc" />
        <path
           style="fill:none;stroke:#08828b;stroke-width:5;stroke-linecap:butt;stroke-linejoin:miter;stroke-miterlimit:4;stroke-dasharray:none;stroke-opacity:1"
           d="m 39.914286,89.113101 c 2.965359,-3.567755 6.259626,-6.862022 9.827381,-9.827381 4.025748,-3.346021 8.519604,-6.326867 13.607143,-7.559525 3.729071,-0.903515 7.691939,-0.823076 11.381274,0.23102 3.689335,1.054097 7.096529,3.07939 9.785393,5.816601"
           id="path947"
           inkscape:connector-curvature="0"
           inkscape:path-effect="#path-effect949"
           inkscape:original-d="m 39.914286,89.113101 c 3.27606,-3.276057 6.551853,-6.551853 9.827381,-9.827381 3.275529,-3.275529 9.071692,-5.039948 13.607143,-7.559525 4.53545,-2.519576 15.371298,4.031483 21.166667,6.047621"
           sodipodi:nodetypes="cssc" />
        <path
           style="fill:none;stroke:#08828b;stroke-width:5;stroke-linecap:butt;stroke-linejoin:miter;stroke-miterlimit:4;stroke-dasharray:none;stroke-opacity:1"
           d="m 120.87681,93.195244 c 1.60094,-5.275601 4.8095,-10.051607 9.08834,-13.528168 4.27885,-3.47656 9.61053,-5.639502 15.10213,-6.126592 5.21072,-0.462176 10.54636,0.582092 15.19838,2.974558 4.65201,2.392466 8.60501,6.125211 11.25996,10.632584"
           id="path951"
           inkscape:connector-curvature="0"
           inkscape:path-effect="#path-effect953"
           inkscape:original-d="m 120.87681,93.195244 c 7.81177,-6.55185 16.12725,-13.103439 24.19047,-19.65476 8.06323,-6.551324 17.63916,9.071162 26.45834,13.607142" />
      </g>
    </g>
  </g>
</svg>
