<?xml version="1.0" encoding="UTF-8" standalone="no"?>
<svg
   xmlns:dc="http://purl.org/dc/elements/1.1/"
   xmlns:cc="http://creativecommons.org/ns#"
   xmlns:rdf="http://www.w3.org/1999/02/22-rdf-syntax-ns#"
   xmlns:svg="http://www.w3.org/2000/svg"
   xmlns="http://www.w3.org/2000/svg"
   xmlns:sodipodi="http://sodipodi.sourceforge.net/DTD/sodipodi-0.dtd"
   xmlns:inkscape="http://www.inkscape.org/namespaces/inkscape"
   version="1.1"
   id="Capa_1"
   x="0px"
   y="0px"
   width="97px"
   height="97px"
   viewBox="0 0 97 97"
   style="enable-background:new 0 0 97 97;"
   xml:space="preserve"
   sodipodi:docname="pregnancy.svg"
   inkscape:version="0.92.5 (2060ec1f9f, 2020-04-08)"><metadata
   id="metadata25"><rdf:RDF><cc:Work
       rdf:about=""><dc:format>image/svg+xml</dc:format><dc:type
         rdf:resource="http://purl.org/dc/dcmitype/StillImage" /><dc:title></dc:title></cc:Work></rdf:RDF></metadata><defs
   id="defs23" /><sodipodi:namedview
   pagecolor="#ffffff"
   bordercolor="#666666"
   borderopacity="1"
   objecttolerance="10"
   gridtolerance="10"
   guidetolerance="10"
   inkscape:pageopacity="0"
   inkscape:pageshadow="2"
   inkscape:window-width="1280"
   inkscape:window-height="959"
   id="namedview21"
   showgrid="false"
   inkscape:zoom="2.4329897"
   inkscape:cx="44.989331"
   inkscape:cy="90.122195"
   inkscape:window-x="0"
   inkscape:window-y="0"
   inkscape:window-maximized="1"
   inkscape:current-layer="Capa_1" />
<linearGradient
   id="SVGID_1_"
   gradientUnits="userSpaceOnUse"
   x1="26.5679"
   y1="86.2393"
   x2="74.278"
   y2="38.5291"
   gradientTransform="matrix(0.80865051,0,0,1,3.7047174,0)">
	<stop
   offset="0"
   style="stop-color:#046973"
   id="stop2" />
	<stop
   offset="1"
   style="stop-color:#34A6AE"
   id="stop4" />
</linearGradient>
<path
   style="clip-rule:evenodd;fill:#87decd;fill-rule:evenodd;stroke:#08828b;stroke-width:2.07334781;stroke-linecap:round;stroke-linejoin:round;stroke-miterlimit:22.92560005"
   d="m 32.83835,34.669218 h 32.763076 c 10.780468,0 19.601296,6.383058 19.601296,14.182221 v 28.537267 c 0,7.800045 -8.822044,14.182221 -19.601296,14.182221 H 32.83835 c -10.779252,0 -19.60008,-6.381294 -19.60008,-14.182221 V 48.851439 c -0.0013,-7.800045 8.81961,-14.182221 19.60008,-14.182221 z"
   id="path7"
   inkscape:connector-curvature="0" />

<circle
   style="clip-rule:evenodd;fill:#f9b97a;fill-rule:evenodd;stroke:#08828b;stroke-width:2.0000999;stroke-linecap:round;stroke-linejoin:round;stroke-miterlimit:22.92560005"
   cx="48.886002"
   cy="24.423"
   r="19.132999"
   id="circle11" />
<linearGradient
   id="SVGID_2_"
   gradientUnits="userSpaceOnUse"
   x1="39.9409"
   y1="29.8467"
   x2="58.3592"
   y2="10.0955"
   gradientTransform="translate(0,8)">
	<stop
   offset="0"
   style="stop-color:#FABF73"
   id="stop13" />
	<stop
   offset="1"
   style="stop-color:#FFFFFF"
   id="stop15" />
</linearGradient>
<circle
   style="clip-rule:evenodd;fill:url(#SVGID_2_);fill-rule:evenodd"
   cx="48.886002"
   cy="28.253998"
   r="13.772"
   id="circle18" />
<ellipse
   style="fill:#87decd;fill-opacity:1;stroke:#08828b;stroke-width:2.07138085;stroke-miterlimit:4;stroke-dasharray:none;stroke-opacity:1"
   id="path832"
   cx="48.84322"
   cy="75.226692"
   rx="32.845844"
   ry="21.953896" /><path
   style="clip-rule:evenodd;fill:#0c838c;fill-rule:evenodd"
   d="m 23.20235,27.883218 c -1.969,4.217 -2.105,9.285 -0.079,13.507 1.307,2.667 3.475,5.215 6.486,5.908 3.811,0.831 7.85,-0.104 11.123,-2.16 0.018,0.014 0.037,0.022 0.055,0.035 0.093,-0.36 0.271,-0.695 0.526,-0.963 0.122,-0.294 0.308,-0.556 0.548,-0.769 0.038,-0.146 0.091,-0.289 0.157,-0.425 0.006,-0.014 0.014,-0.028 0.02,-0.04 -3.072,-2.08 -5.598,-4.961 -7.2,-8.307 l -0.072,0.008 c -1.708,-3.47 -2.76,-7.359 -3.037,-11.259 -0.062,-1.112 -0.084,-2.229 -0.075,-3.343 4.839,-2.441 12.179856,-6.228543 16.167856,-9.933543 0.586,-0.34 -0.226051,-8.128796 0.267949,-8.591796 -3.544,0.203 -8.726068,1.056017 -12.191068,1.825017 -4.26633,4.051398 -1.237864,1.017822 -5.785737,5.468322 -1.519,1.891 -2.875,4.226 -3.325,6.62 l -0.031,-0.287 c -1.47,4.15 -1.898,8.605 -3.555,12.707 z m 34.424998,15.615 c 0.125,0.18 0.219,0.38 0.287,0.591 0.025,0.037 0.054,0.072 0.076,0.111 0.428,0.26 0.721,0.662 0.87,1.119 0.012,-0.006 0.021,-0.012 0.033,-0.019 3.015,2.28 7.122,3.439 10.79,2.158 4.142,-1.485 7.492,-5.187 8.306,-9.553 0.725,-3.771 0.105,-7.736 -1.32,-11.268 -0.085,-0.451 -0.225,-0.885 -0.428,-1.299 -1.803,-3.545 -2.633,-7.492 -4.438,-11.039 -0.667,-2.102 -2.332771,-3.526229 -3.333771,-5.495228 C 65.229001,7.539608 65.649365,6.286752 63.340119,5.164718 54.98098,0.875579 53.124153,1.227879 48.090155,1.549879 c 0.35,0.482 -0.624949,8.110796 -0.267949,8.591796 3.966998,4.967 11.314142,8.798543 17.655142,8.741543 0.557,1.037 1.156,2.053 1.801,3.041 l 0.035,-0.004 c 0.225,0.27 0.672,0.813 0.897,1.087 -0.203,2.856 -0.752,5.678 -1.666,8.394 -1.723,4.76 -4.787,9.15 -9.141,11.83 0.081,0.084 0.157,0.172 0.224,0.267 z"
   id="path32"
   inkscape:connector-curvature="0"
   sodipodi:nodetypes="ccccccccccccccccccccccccccccccccccccccccc" /><path
   style="fill:#004455;fill-opacity:1;stroke:#d1828b;stroke-width:0.99082571;stroke-miterlimit:4;stroke-dasharray:none;stroke-opacity:1"
   id="path951"
   d="m 51.507796,88.570524 c 0.680407,-0.765157 1.425618,-1.471695 2.12991,-2.215741 0.811563,-0.919057 1.604117,-1.853738 2.342737,-2.830157 0.585292,-0.777687 1.050548,-1.633175 1.535487,-2.472399 0.384685,-0.69942 0.830188,-1.366537 1.154708,-2.095685 0.292236,-0.732605 0.523899,-1.488773 0.671259,-2.261994 0.06084,-0.73069 0.254226,-1.43772 0.391451,-2.156208 0.122284,-0.670529 0.160926,-1.351952 0.175982,-2.031804 0.02758,-0.863353 0.03944,-1.72486 -0.03715,-2.585815 -0.113074,-0.790138 -0.325851,-1.560479 -0.64507,-2.293788 -0.347409,-0.621038 -0.668829,-1.25712 -1.047924,-1.860481 -0.335998,-0.508808 -0.728741,-0.972541 -1.219408,-1.342276 -0.539826,-0.283087 -1.052901,-0.621382 -1.621892,-0.84609 -0.551327,-0.200524 -1.116311,-0.21418 -1.691248,-0.153214 -0.523364,0.160322 -1.047473,0.353706 -1.545683,0.582784 -1.269685,0.7072 1.448121,-0.815975 2.174408,-1.220141 0.08475,-0.04716 -0.166646,0.0991 -0.249757,0.148989 -0.244993,0.147062 -0.480491,0.300685 -0.713235,0.465687 -0.44784,0.342941 -0.884118,0.706648 -1.242575,1.140479 -0.322259,0.529549 -0.457467,1.143394 -0.679326,1.717548 -0.19008,0.504625 -0.319948,1.030397 -0.426339,1.557498 -0.114658,0.625757 -0.136795,1.262449 -0.146156,1.896629 -0.0087,0.56521 0.0017,1.130429 -7.89e-4,1.695636 -0.02863,0.488339 0.122548,0.963605 0.105633,1.450659 -0.12011,1.169188 0.0018,0.320644 -2.872683,1.632317 -0.05876,0.02681 -0.07939,-0.100396 -0.118404,-0.151102 -0.152714,-0.198484 -0.28522,-0.402418 -0.414706,-0.616182 -0.3598,-0.597078 -0.715892,-1.193844 -1.09454,-1.779756 -0.347621,-0.468038 -0.580164,-1.000218 -0.849213,-1.51156 -0.331743,-0.489469 -0.650765,-0.992883 -1.017512,-1.458324 -0.345004,-0.425161 -0.737774,-0.803708 -1.200331,-1.10355 -0.460254,-0.289397 -0.999923,-0.405751 -1.481194,-0.652951 -0.521441,-0.254729 -1.085363,-0.380388 -1.660232,-0.444702 -0.681762,-0.08982 -1.352137,0.04522 -2.020114,0.161725 -0.683642,0.12629 -1.296619,0.399683 -1.88467,0.753826 0.803568,-0.450483 1.605116,-0.904441 2.410705,-1.35145 0.09724,-0.05396 -0.188598,0.117661 -0.2855,0.172207 -0.99879,0.562216 -2.000409,1.119598 -3.00143,1.677996 -0.102973,0.05744 -0.413357,0.227213 -0.310535,0.169513 2.537193,-1.423757 3.162152,-1.868321 2.159704,-1.174243 -0.537815,0.380574 -0.967862,0.855165 -1.281423,1.425316 -0.25081,0.581586 -0.490184,1.170133 -0.71443,1.762477 -0.177976,0.510185 -0.228237,1.046071 -0.251927,1.580932 -0.01963,0.525603 -0.009,1.051477 -0.01154,1.577242 0.02409,0.530973 0.148258,1.048728 0.263298,1.565821 0.11894,0.589861 0.320522,1.154853 0.509565,1.725122 0.218933,0.567994 0.39658,1.15118 0.678183,1.693193 0.369827,0.607628 0.763099,1.20205 1.154735,1.797127 0.37842,0.523619 0.786225,1.027628 1.198986,1.525865 0.465042,0.448458 1.028802,0.805011 1.580866,1.145308 0.519229,0.365954 1.046159,0.70331 1.605475,1.007195 0.458538,0.228602 0.96033,0.326641 1.447802,0.468693 0.196711,0.05732 0.617577,0.220361 0.802979,0.290227 0.759885,0.318498 1.549993,0.583357 2.352062,0.781025 0.65583,0.198311 1.312346,0.392869 1.96956,0.587504 0.565814,0.179968 1.125624,0.352515 1.660112,0.611107 0.61279,0.283914 1.249495,0.517268 1.902509,0.694839 0.524973,0.202495 1.075002,0.305679 1.634299,0.357273 0.40306,0.0548 0.777439,0.190128 1.146113,0.352957 0,0 -2.638772,1.726533 -2.638772,1.726533 v 0 c -0.354779,-0.132048 -0.710347,-0.254177 -1.092344,-0.285217 -0.563444,-0.07837 -1.111791,-0.220155 -1.645278,-0.414982 -0.657424,-0.207096 -1.309421,-0.4384 -1.933876,-0.728467 -0.531912,-0.229368 -1.088286,-0.394369 -1.638675,-0.575683 -0.646324,-0.206074 -1.296695,-0.401715 -1.949299,-0.587084 -0.795497,-0.229288 -1.576338,-0.512956 -2.344927,-0.81678 -0.768816,-0.260874 -1.568485,-0.436308 -2.305282,-0.781815 -0.563,-0.309627 -1.096802,-0.654499 -1.621314,-1.022992 -0.564776,-0.375818 -1.16863,-0.731337 -1.629003,-1.229005 -0.418065,-0.508594 -0.843258,-1.014378 -1.214257,-1.557366 -0.389395,-0.606623 -0.779346,-1.211522 -1.171287,-1.816326 -0.307489,-0.550307 -0.48335,-1.153799 -0.705145,-1.740622 -0.187719,-0.581178 -0.417848,-1.144467 -0.539928,-1.744845 -0.112439,-0.538676 -0.25534,-1.070844 -0.293361,-1.622032 -0.006,-0.529443 -0.0047,-1.059198 0.004,-1.588562 0.02132,-0.561777 0.05078,-1.125587 0.222711,-1.666715 0.19767,-0.611819 0.495775,-1.190351 0.706457,-1.797993 0.267399,-0.618691 0.677236,-1.138407 1.215749,-1.558323 1.134617,-0.892261 0.213455,-0.187245 3.208541,-1.89516 0.102866,-0.05866 0.416457,-0.225927 0.313772,-0.166966 -0.790677,0.45399 -1.586868,0.898719 -2.377886,1.352139 -0.09538,0.05467 0.193909,-0.103891 0.290864,-0.155837 0.987284,-0.568925 1.974567,-1.137851 2.961851,-1.706776 0.610557,-0.322189 1.248951,-0.55302 1.937842,-0.65875 0.698676,-0.118914 1.404141,-0.20957 2.11235,-0.10637 0.591121,0.101024 1.162618,0.272808 1.704914,0.527744 0.513143,0.214909 1.052443,0.381732 1.517952,0.691614 0.468379,0.340704 0.884118,0.73888 1.241319,1.191933 0.366927,0.48605 0.704489,0.993615 1.045554,1.497006 0.283792,0.496469 0.480695,1.039111 0.82064,1.505666 0.367661,0.591284 0.736499,1.181105 1.111934,1.767387 0.0906,0.132063 0.183966,0.279195 0.292487,0.399776 0.04078,0.04532 0.0831,0.09036 0.132597,0.126402 0.0084,0.0061 0.03927,-0.01293 0.03022,-0.0079 -2.761749,1.546449 -3.808025,1.55924 -2.66178,1.529917 0.238248,-0.413094 -0.130399,-0.952204 -0.03647,-1.401836 -0.0044,-0.568952 0.0016,-1.138084 0.009,-1.70697 0.01601,-0.647308 0.02278,-1.296688 0.117194,-1.938853 0.09596,-0.544934 0.209451,-1.090678 0.404195,-1.611002 0.23794,-0.588403 0.42338,-1.187228 0.6326,-1.784698 0.322695,-0.482062 0.76747,-0.856278 1.213993,-1.227096 1.273443,-0.993032 2.788633,-1.68626 4.194798,-2.456665 0.521446,-0.208791 1.046656,-0.444155 1.612035,-0.503267 0.606636,-0.03303 1.210369,0.05153 1.774689,0.281072 0.576535,0.261796 1.127926,0.585906 1.667628,0.912441 0.507723,0.402959 0.91544,0.903413 1.265876,1.442674 0.380715,0.620001 0.711458,1.268205 1.057133,1.907084 0.326991,0.763928 0.562421,1.564516 0.679594,2.385991 0.06757,0.866684 0.08559,1.733205 0.07421,2.602524 -0.0149,0.695371 -0.02378,1.391733 -0.154323,2.078239 -0.14114,0.718139 -0.337697,1.424846 -0.394646,2.155611 -0.145959,0.793169 -0.369917,1.566593 -0.653548,2.323288 -0.293907,0.757365 -0.743599,1.432416 -1.144978,2.138215 -0.512547,0.841786 -0.969729,1.719059 -1.551163,2.517699 -0.758157,0.980138 -1.54652,1.934846 -2.362881,2.869334 -0.656756,0.722506 -1.366714,1.397089 -1.997999,2.140164 0,0 -2.937793,1.229361 -2.937793,1.229361 z"
   inkscape:connector-curvature="0" /></svg>